<?xml version="1.0" encoding="UTF-8" standalone="no"?>
<!-- Created with Inkscape (http://www.inkscape.org/) -->

<svg
   xmlns:dc="http://purl.org/dc/elements/1.1/"
   xmlns:cc="http://creativecommons.org/ns#"
   xmlns:rdf="http://www.w3.org/1999/02/22-rdf-syntax-ns#"
   xmlns:svg="http://www.w3.org/2000/svg"
   xmlns="http://www.w3.org/2000/svg"
   xmlns:sodipodi="http://sodipodi.sourceforge.net/DTD/sodipodi-0.dtd"
   xmlns:inkscape="http://www.inkscape.org/namespaces/inkscape"
   width="215.85605"
   height="20.901594"
   id="svg2"
   version="1.1"
   inkscape:version="0.91 r13725"
   sodipodi:docname="logosmall.svg">
  <defs
     id="defs4" />
  <sodipodi:namedview
     id="base"
     pagecolor="#ffffff"
     bordercolor="#666666"
     borderopacity="1.0"
     inkscape:pageopacity="0.0"
     inkscape:pageshadow="2"
     inkscape:zoom="1.4"
     inkscape:cx="88.301227"
     inkscape:cy="-86.771302"
     inkscape:document-units="px"
     inkscape:current-layer="layer1"
     showgrid="false"
     fit-margin-top="0"
     fit-margin-left="0"
     fit-margin-right="0"
     fit-margin-bottom="0"
     inkscape:window-width="1366"
     inkscape:window-height="706"
     inkscape:window-x="-8"
     inkscape:window-y="-8"
     inkscape:window-maximized="1" />
  <metadata
     id="metadata7">
    <rdf:RDF>
      <cc:Work
         rdf:about="">
        <dc:format>image/svg+xml</dc:format>
        <dc:type
           rdf:resource="http://purl.org/dc/dcmitype/StillImage" />
        <dc:title></dc:title>
      </cc:Work>
    </rdf:RDF>
  </metadata>
  <g
     inkscape:label="Layer 1"
     inkscape:groupmode="layer"
     id="layer1"
     transform="translate(46.94805,-424.59849)">
    <g
       transform="matrix(0.08001027,0,0,0.08001027,-40.637799,398.24139)"
       id="layer1-1">
      <path
         d="m 393.36,334.66 c -26.422,0 -52.849,10.027 -72.935,30.113 -40.172,40.171 -40.218,105.74 -0.046,145.91 35.217,35.216 89.911,39.558 129.94,13.03 l 60.918,60.916 c 8.0386,8.0384 20.97,8.0384 29.008,0 8.0387,-8.0384 8.0387,-20.969 0,-29.008 L 479.373,494.705 C 505.87,454.682 501.5,399.973 466.296,364.765 446.21,344.68 419.782,334.652 393.361,334.652 Z m -0.046,27.166 c 19.371,0.009 38.738,7.4275 53.596,22.285 29.716,29.715 29.762,77.521 0.046,107.24 -29.716,29.715 -77.523,29.715 -107.24,0 -29.716,-29.715 -29.716,-77.52 0,-107.24 14.858,-14.858 34.225,-22.295 53.596,-22.285 z m -54.656,99.224 a 2.9472,2.9471 0 0 0 -2.5325,4.236 c 10.265,21.49 32.226,36.328 57.602,36.328 5.5064,0 10.842,-0.71645 15.932,-2.0259 a 2.9472,2.9471 0 0 0 -0.0921,-5.7094 c -25.496,-5.6948 -48.907,-16.882 -68.975,-32.231 a 2.9472,2.9471 0 0 0 -1.9339,-0.59857 z"
         style="color:#000000;text-indent:0px;text-transform:none;block-progression:tb"
         id="path3058-6"
         inkscape:connector-curvature="0" />
    </g>
    <g
       style="font-style:normal;font-variant:normal;font-weight:normal;font-stretch:normal;font-size:30px;line-height:125%;font-family:'Lucida Sans';-inkscape-font-specification:'Lucida Sans';text-align:start;letter-spacing:0px;word-spacing:0px;writing-mode:lr-tb;text-anchor:start;fill:#000000;fill-opacity:1;stroke:none"
       id="text3001"
       transform="matrix(0.69029754,0,0,0.69029754,-14.539926,131.4992)">
      <path
         d="m -46.948051,447.16387 8.388779,-21.15058 2.972515,0 8.260162,21.15058 -3.244042,0 -2.300842,-5.85929 -8.960417,0 -2.329423,5.85929 z m 5.987902,-8.08867 7.216924,0 -3.601316,-9.11762 z"
         id="path2987"
         inkscape:connector-curvature="0" />
      <path
         d="m -8.391103,446.59224 c -1.848311,0.53352 -3.198803,0.85031 -4.051481,0.95034 -0.852706,0.10004 -1.736361,0.15005 -2.650968,0.15006 -2.534269,-10e-6 -4.527853,-0.45731 -5.980757,-1.37193 -1.452917,-0.91462 -2.558082,-2.23415 -3.315498,-3.95859 -0.757422,-1.72443 -1.136131,-3.64895 -1.13613,-5.77354 -1e-6,-3.24879 0.859836,-5.91167 2.579514,-7.98864 1.719671,-2.07692 4.337291,-3.1154 7.852871,-3.11542 2.124572,2e-5 4.349192,0.31918 6.6738671,0.95749 l 0,2.77245 c -2.1436571,-0.73359 -3.6180031,-1.1647 -4.4230451,-1.29334 -0.805069,-0.12859 -1.56487,-0.1929 -2.279404,-0.19292 -2.543797,2e-5 -4.382562,0.86462 -5.516302,2.5938 -1.133753,1.72922 -1.700626,3.82284 -1.700622,6.28087 -4e-6,1.52438 0.24056,2.94632 0.721693,4.26585 0.481122,1.31953 1.288559,2.41278 2.422313,3.27976 1.133739,0.86699 2.658105,1.30048 4.5731,1.30048 0.48588,0 0.943189,-0.0263 1.37193,-0.0786 0.428715,-0.0524 1.052752,-0.20244 1.872113,-0.45015 l 0,-6.88824 2.986806,0 z"
         id="path2989"
         inkscape:connector-curvature="0" />
      <path
         d="m 24.649543,447.16387 0,-21.15058 6.40234,0 c 2.372284,2e-5 4.010977,0.53116 4.916083,1.59344 0.905078,1.0623 1.357624,2.27941 1.357639,3.65132 -1.5e-5,0.80031 -0.159597,1.59108 -0.478746,2.3723 -0.31918,0.78126 -0.774107,1.47675 -1.364785,2.08647 -0.590705,0.60977 -1.39576,1.12424 -2.415168,1.54343 l 7.059722,9.90362 -3.687061,0 -6.016485,-8.94613 -2.801024,0 0,8.94613 z m 2.972515,-11.1898 0.971784,0 c 2.219851,1e-5 3.718016,-0.46206 4.4945,-1.38622 0.776463,-0.92413 1.164699,-1.93879 1.164711,-3.04398 -1.2e-5,-0.65736 -0.145303,-1.23138 -0.435873,-1.72206 -0.290594,-0.49063 -0.74314,-0.8741 -1.357639,-1.15042 -0.61452,-0.27627 -1.598212,-0.41441 -2.951079,-0.41443 l -1.886404,0 z"
         id="path2991"
         inkscape:connector-curvature="0" />
      <path
         d="m 40.683975,447.16387 8.38878,-21.15058 2.972515,0 8.260162,21.15058 -3.244042,0 -2.300842,-5.85929 -8.960417,0 -2.329423,5.85929 z m 5.987903,-8.08867 7.216924,0 -3.601317,-9.11762 z"
         id="path2993"
         inkscape:connector-curvature="0" />
      <path
         d="m 71.309454,446.76373 0,-2.97252 c 1.695854,0.78124 2.934401,1.25284 3.715644,1.4148 0.781231,0.16196 1.505305,0.24295 2.172222,0.24295 1.209957,0 2.165068,-0.33107 2.865333,-0.99323 0.700245,-0.66213 1.050372,-1.45528 1.050384,-2.37943 -1.2e-5,-0.69549 -0.18103,-1.33858 -0.543056,-1.92928 -0.371575,-0.58116 -1.295721,-1.29094 -2.772442,-2.12935 l -1.457675,-0.84316 c -1.943572,-1.10516 -3.248811,-2.11505 -3.915717,-3.02968 -0.666913,-0.91461 -1.000367,-1.92927 -1.000366,-3.04397 -1e-6,-1.00035 0.264381,-1.93879 0.793147,-2.81532 0.528762,-0.87649 1.238544,-1.56245 2.12935,-2.05789 0.890796,-0.4954 2.012633,-0.74311 3.365516,-0.74313 1.629157,2e-5 3.348832,0.27155 5.159028,0.81458 l 0,2.74386 c -1.572015,-0.61925 -2.650979,-0.9932 -3.236897,-1.12184 -0.585938,-0.12859 -1.169485,-0.1929 -1.75064,-0.19292 -1.219501,2e-5 -2.12221,0.31918 -2.708133,0.95748 -0.585933,0.63836 -0.878897,1.29097 -0.878893,1.95787 -4e-6,0.45733 0.138141,0.92178 0.414438,1.39336 0.276286,0.47162 0.64785,0.87652 1.114693,1.21473 0.46683,0.33823 1.109922,0.74076 1.929276,1.20758 l 1.51484,0.85746 c 1.962611,1.11471 3.272612,2.13413 3.930007,3.05826 0.65737,0.93368 0.98606,2.0055 0.986075,3.21546 -1.5e-5,1.64823 -0.626433,3.07732 -1.879258,4.28728 -1.252851,1.20997 -3.098762,1.81495 -5.537738,1.81496 -0.752663,-10e-6 -1.481499,-0.05 -2.186514,-0.15006 -0.705023,-0.10003 -1.795897,-0.35966 -3.272624,-0.77885 z"
         id="path2995"
         inkscape:connector-curvature="0" />
      <path
         d="m 99.848457,446.66369 c -1.88642,0.57164 -3.501293,0.85745 -4.84463,0.85745 -2.410411,0 -4.30634,-0.8122 -5.687793,-2.4366 -1.381459,-1.6244 -2.072187,-3.54177 -2.072185,-5.7521 -2e-6,-1.45767 0.304871,-2.84389 0.91462,-4.15867 0.609743,-1.31475 1.407653,-2.29129 2.393732,-2.92964 0.986068,-0.63831 2.146015,-0.95747 3.479842,-0.95749 1.791122,2e-5 3.22021,0.6431 4.287286,1.92928 1.067037,1.28619 1.60057,3.2107 1.60058,5.77354 l -0.01434,0.85745 -9.789289,0 c 0.152431,1.37194 0.447777,2.42946 0.886037,3.17259 0.43825,0.74313 1.021795,1.32191 1.75064,1.73635 0.72883,0.41444 1.655358,0.62165 2.779587,0.62165 0.571627,0 1.14088,-0.05 1.707769,-0.15005 0.566859,-0.10004 1.436221,-0.36442 2.608096,-0.79315 z m -9.603511,-8.93184 6.845358,0 c -1e-5,-1.55293 -0.302502,-2.66287 -0.907475,-3.32979 -0.604992,-0.66689 -1.379084,-1.00035 -2.322277,-1.00036 -1.076591,10e-6 -1.917373,0.35966 -2.52235,1.07896 -0.604988,0.71932 -0.969406,1.80305 -1.093256,3.25119 z"
         id="path2997"
         inkscape:connector-curvature="0" />
      <path
         d="m 112.76747,445.19172 c -0.83842,0.77172 -1.66491,1.35288 -2.47949,1.7435 -0.81459,0.39062 -1.6125,0.58592 -2.39373,0.58592 -1.09564,0 -2.11506,-0.36203 -3.05826,-1.08611 -0.94321,-0.72407 -1.4148,-1.7816 -1.4148,-3.17259 0,-1.52435 0.65738,-2.78434 1.97215,-3.77995 1.31476,-0.99559 3.41552,-1.49339 6.3023,-1.4934 l 0.65738,0 0,-1.87212 c -1e-5,-0.74312 -0.10004,-1.28378 -0.30011,-1.62202 -0.20007,-0.3382 -0.5121,-0.60258 -0.93605,-0.79315 -0.42398,-0.19052 -0.95036,-0.2858 -1.57915,-0.28581 -1.45768,10e-6 -3.04874,0.45732 -4.77317,1.37193 l 0,-2.32943 c 1.89593,-0.77169 3.68229,-1.15755 5.3591,-1.15756 0.91461,1e-5 1.75539,0.14531 2.52235,0.43587 0.76694,0.2906 1.37907,0.74791 1.83639,1.37193 0.4573,0.62406 0.68595,1.6268 0.68596,3.00824 l 0,7.03114 c -1e-5,0.78125 0.0619,1.30763 0.18578,1.57915 0.12384,0.27154 0.29771,0.47875 0.52162,0.62166 0.22388,0.14291 0.48349,0.21437 0.77886,0.21437 0.12384,0 0.30486,-0.019 0.54305,-0.0572 l 0.20008,1.55771 c -0.63835,0.30487 -1.34337,0.45731 -2.11506,0.45731 -0.51449,0 -1.00991,-0.16672 -1.48626,-0.50018 -0.47638,-0.33346 -0.81936,-0.9432 -1.02894,-1.82924 z m -0.41445,-1.52913 0,-4.01576 -0.90032,-0.0286 c -1.47674,1e-5 -2.71529,0.28582 -3.71564,0.85745 -1.00038,0.57165 -1.50056,1.34812 -1.50056,2.32942 0,0.67644 0.24533,1.24808 0.73598,1.71491 0.49066,0.46685 1.06468,0.70027 1.72206,0.70027 0.59069,0 1.19091,-0.13101 1.80066,-0.39301 0.60975,-0.262 1.22901,-0.65024 1.85782,-1.16471 z"
         id="path2999"
         inkscape:connector-curvature="0" />
      <path
         d="m 120.94188,447.16387 0,-15.51996 2.81531,0 0,2.91535 c 0.53352,-1.03846 1.22663,-1.84113 2.07933,-2.40802 0.85269,-0.56686 1.77921,-0.8503 2.77959,-0.85031 0.28581,1e-5 0.58592,0.0238 0.90033,0.0714 l 0,2.62953 c -0.47638,-0.16195 -0.9051,-0.24294 -1.28618,-0.24295 -0.88605,10e-6 -1.70302,0.2644 -2.4509,0.79315 -0.7479,0.52877 -1.42196,1.32192 -2.02217,2.37944 l 0,10.23231 z"
         id="path3001"
         inkscape:connector-curvature="0" />
      <path
         d="m 143.72163,446.69226 c -1.81972,0.55259 -3.39172,0.82888 -4.716,0.82888 -1.38148,0 -2.6486,-0.37395 -3.8014,-1.12184 -1.1528,-0.74789 -2.02216,-1.73158 -2.6081,-2.95107 -0.58592,-1.2195 -0.87889,-2.59619 -0.87889,-4.13009 0,-2.28654 0.63357,-4.19437 1.9007,-5.72352 1.26713,-1.52911 3.22498,-2.29368 5.87357,-2.29369 1.21948,1e-5 2.57236,0.16674 4.05863,0.50018 l 0,2.358 c -1.59107,-0.46682 -2.88677,-0.70023 -3.88713,-0.70025 -1.58155,2e-5 -2.77245,0.58832 -3.57273,1.76493 -0.8003,1.17663 -1.20045,2.57 -1.20044,4.1801 -1e-5,1.7435 0.45015,3.15354 1.35048,4.23012 0.90033,1.07659 2.0698,1.61487 3.50844,1.61487 1.28616,0 2.61045,-0.32869 3.97287,-0.98607 z"
         id="path3003"
         inkscape:connector-curvature="0" />
      <path
         d="m 147.92317,447.16387 0,-22.56539 2.81531,0 0,9.96078 c 0.71454,-1.03846 1.5458,-1.84113 2.49377,-2.40802 0.94796,-0.56686 1.93165,-0.8503 2.95108,-0.85031 1.31475,1e-5 2.38181,0.41683 3.20117,1.25046 0.81933,0.83365 1.22901,1.98883 1.22902,3.46555 l 0,11.14693 -2.81532,0 0,-10.23231 c -1e-5,-1.07657 -0.0953,-1.78636 -0.28582,-2.12936 -0.19055,-0.34296 -0.45732,-0.60734 -0.80029,-0.79313 -0.34299,-0.18578 -0.70979,-0.27866 -1.1004,-0.27868 -0.6955,2e-5 -1.44577,0.21437 -2.25082,0.64309 -0.80506,0.42874 -1.6792,1.34336 -2.62239,2.74386 l 0,10.04653 z"
         id="path3005"
         inkscape:connector-curvature="0" />
      <path
         d="m 175.27602,447.16387 0,-21.15058 11.81861,0 0,2.24367 -8.81752,0 0,6.7882 7.38843,0 0,2.21509 -7.38843,0 0,7.65994 9.43202,0 0,2.24368 z"
         id="path3007"
         inkscape:connector-curvature="0" />
      <path
         d="m 191.25328,447.16387 0,-15.51996 2.81533,0 0,2.91535 c 0.71453,-1.03846 1.54579,-1.84113 2.49376,-2.40802 0.94796,-0.56686 1.93165,-0.8503 2.95108,-0.85031 1.31476,1e-5 2.38181,0.41683 3.20117,1.25046 0.81933,0.83365 1.229,1.98883 1.22902,3.46555 l 0,11.14693 -2.81531,0 0,-10.23231 c -2e-5,-1.07657 -0.0953,-1.78636 -0.28582,-2.12936 -0.19056,-0.34296 -0.45733,-0.60734 -0.8003,-0.79313 -0.34299,-0.18578 -0.70979,-0.27866 -1.1004,-0.27868 -0.6955,2e-5 -1.44577,0.21437 -2.25081,0.64309 -0.80508,0.42874 -1.6792,1.34336 -2.62239,2.74386 l 0,10.04653 z"
         id="path3009"
         inkscape:connector-curvature="0" />
      <path
         d="m 209.48852,452.3229 0.3287,-2.44375 c 1.62916,0.77171 3.23927,1.15756 4.83034,1.15756 1.78159,0 3.01775,-0.45493 3.70849,-1.36478 0.69072,-0.90986 1.03609,-2.1365 1.0361,-3.67992 l 0,-2.44375 c -0.40969,0.85746 -1.04802,1.61488 -1.91499,2.27226 -0.86699,0.65739 -1.92453,0.98607 -3.17259,0.98607 -2.12459,0 -3.67278,-0.76456 -4.64456,-2.29369 -0.97178,-1.52912 -1.45767,-3.26547 -1.45767,-5.20905 0,-1.47672 0.28582,-2.85579 0.85746,-4.13722 0.57163,-1.28141 1.36478,-2.24604 2.37944,-2.89392 1.01465,-0.64784 2.1746,-0.97177 3.47984,-0.97178 0.58116,1e-5 1.12183,0.0667 1.62202,0.20008 0.50018,0.13339 0.96701,0.33347 1.40051,0.60021 0.43349,0.26678 0.91699,0.70504 1.45054,1.31477 l 0,-1.77208 2.8296,0 0,11.28985 c -2e-5,3.28691 -0.27393,5.53535 -0.82173,6.74532 -0.54783,1.20996 -1.40529,2.09123 -2.57237,2.64382 -1.16711,0.55258 -2.5557,0.82886 -4.1658,0.82887 -0.52401,-10e-6 -1.0885,-0.0286 -1.69348,-0.0858 -0.60499,-0.0572 -1.14328,-0.13101 -1.61488,-0.22151 -0.4716,-0.0905 -1.09326,-0.26439 -1.86497,-0.52162 z m 9.90363,-10.53242 0,-6.44521 c -0.61929,-0.64784 -1.26476,-1.13136 -1.93643,-1.45053 -0.67168,-0.31916 -1.37432,-0.47874 -2.10791,-0.47875 -1.24808,10e-6 -2.25083,0.50258 -3.00825,1.5077 -0.75742,1.00513 -1.13613,2.46043 -1.13613,4.36587 0,1.49579 0.28105,2.7129 0.84317,3.65134 0.56211,0.93844 1.47673,1.40765 2.74386,1.40765 0.81934,0 1.61248,-0.21435 2.37945,-0.64309 0.76693,-0.42872 1.50767,-1.06704 2.22224,-1.91498 z"
         id="path3011"
         inkscape:connector-curvature="0" />
      <path
         d="m 227.66659,447.16387 0,-15.51996 2.81533,0 0,15.51996 z m 0,-18.33527 0,-2.81531 2.81533,0 0,2.81531 z"
         id="path3013"
         inkscape:connector-curvature="0" />
      <path
         d="m 236.12683,447.16387 0,-15.51996 2.81532,0 0,2.91535 c 0.71454,-1.03846 1.5458,-1.84113 2.49376,-2.40802 0.94796,-0.56686 1.93165,-0.8503 2.95109,-0.85031 1.31475,1e-5 2.38181,0.41683 3.20117,1.25046 0.81932,0.83365 1.229,1.98883 1.22901,3.46555 l 0,11.14693 -2.81531,0 0,-10.23231 c -1e-5,-1.07657 -0.0953,-1.78636 -0.28582,-2.12936 -0.19055,-0.34296 -0.45732,-0.60734 -0.80029,-0.79313 -0.343,-0.18578 -0.70979,-0.27866 -1.1004,-0.27868 -0.6955,2e-5 -1.44577,0.21437 -2.25083,0.64309 -0.80506,0.42874 -1.67919,1.34336 -2.62238,2.74386 l 0,10.04653 z"
         id="path3015"
         inkscape:connector-curvature="0" />
      <path
         d="m 265.68049,446.66369 c -1.88642,0.57164 -3.50129,0.85745 -4.84462,0.85745 -2.41042,0 -4.30635,-0.8122 -5.6878,-2.4366 -1.38146,-1.6244 -2.07219,-3.54177 -2.07218,-5.7521 -10e-6,-1.45767 0.30486,-2.84389 0.91462,-4.15867 0.60973,-1.31475 1.40764,-2.29129 2.39373,-2.92964 0.98606,-0.63831 2.14601,-0.95747 3.47984,-0.95749 1.79112,2e-5 3.22021,0.6431 4.28728,1.92928 1.06704,1.28619 1.60057,3.2107 1.60059,5.77354 l -0.0144,0.85745 -9.78929,0 c 0.15244,1.37194 0.44778,2.42946 0.88604,3.17259 0.43825,0.74313 1.0218,1.32191 1.75064,1.73635 0.72883,0.41444 1.65536,0.62165 2.77959,0.62165 0.57163,0 1.14088,-0.05 1.70777,-0.15005 0.56686,-0.10004 1.43622,-0.36442 2.60809,-0.79315 z m -9.60351,-8.93184 6.84536,0 c -1e-5,-1.55293 -0.3025,-2.66287 -0.90748,-3.32979 -0.60498,-0.66689 -1.37908,-1.00035 -2.32227,-1.00036 -1.07659,10e-6 -1.91738,0.35966 -2.52236,1.07896 -0.60498,0.71932 -0.9694,1.80305 -1.09325,3.25119 z"
         id="path3017"
         inkscape:connector-curvature="0" />
    </g>
  </g>
</svg>
